<svg width="16" height="17" viewBox="0 0 16 17" fill="none" xmlns="http://www.w3.org/2000/svg">
<g id="BsCalendar4Event">
<path id="Vector" d="M3.5 0.116211C3.63261 0.116211 3.75979 0.168889 3.85355 0.262658C3.94732 0.356426 4 0.483603 4 0.616211V1.11621H12V0.616211C12 0.483603 12.0527 0.356426 12.1464 0.262658C12.2402 0.168889 12.3674 0.116211 12.5 0.116211C12.6326 0.116211 12.7598 0.168889 12.8536 0.262658C12.9473 0.356426 13 0.483603 13 0.616211V1.11621H14C14.5304 1.11621 15.0391 1.32692 15.4142 1.702C15.7893 2.07707 16 2.58578 16 3.11621V14.1162C16 14.6466 15.7893 15.1554 15.4142 15.5304C15.0391 15.9055 14.5304 16.1162 14 16.1162H2C1.46957 16.1162 0.960859 15.9055 0.585786 15.5304C0.210714 15.1554 0 14.6466 0 14.1162V3.11621C0 2.58578 0.210714 2.07707 0.585786 1.702C0.960859 1.32692 1.46957 1.11621 2 1.11621H3V0.616211C3 0.483603 3.05268 0.356426 3.14645 0.262658C3.24021 0.168889 3.36739 0.116211 3.5 0.116211V0.116211ZM2 2.11621C1.73478 2.11621 1.48043 2.22157 1.29289 2.4091C1.10536 2.59664 1 2.85099 1 3.11621V4.11621H15V3.11621C15 2.85099 14.8946 2.59664 14.7071 2.4091C14.5196 2.22157 14.2652 2.11621 14 2.11621H2ZM15 5.11621H1V14.1162C1 14.3814 1.10536 14.6358 1.29289 14.8233C1.48043 15.0109 1.73478 15.1162 2 15.1162H14C14.2652 15.1162 14.5196 15.0109 14.7071 14.8233C14.8946 14.6358 15 14.3814 15 14.1162V5.11621Z" fill="#A0AEC0"/>
<path id="Vector_2" d="M11 7.61621C11 7.4836 11.0527 7.35643 11.1464 7.26266C11.2402 7.16889 11.3674 7.11621 11.5 7.11621H12.5C12.6326 7.11621 12.7598 7.16889 12.8536 7.26266C12.9473 7.35643 13 7.4836 13 7.61621V8.61621C13 8.74882 12.9473 8.876 12.8536 8.96976C12.7598 9.06353 12.6326 9.11621 12.5 9.11621H11.5C11.3674 9.11621 11.2402 9.06353 11.1464 8.96976C11.0527 8.876 11 8.74882 11 8.61621V7.61621Z" fill="#A0AEC0"/>
</g>
</svg>
