<svg width="16" height="17" viewBox="0 0 16 17" fill="none" xmlns="http://www.w3.org/2000/svg">
<g id="BsFlag">
<path id="Vector" d="M14.778 0.201211C14.8462 0.246848 14.9022 0.30858 14.9409 0.380957C14.9796 0.453334 14.9999 0.534129 15 0.616211V8.11621C15 8.21606 14.9701 8.31362 14.9141 8.39632C14.8581 8.47902 14.7787 8.54307 14.686 8.58021L14.5 8.11621L14.686 8.58021L14.683 8.58121L14.677 8.58421L14.654 8.59321C14.5225 8.64547 14.3902 8.69547 14.257 8.74321C13.993 8.83821 13.626 8.96621 13.21 9.09321C12.394 9.34521 11.331 9.61621 10.5 9.61621C9.653 9.61621 8.952 9.33621 8.342 9.09121L8.314 9.08121C7.68 8.82621 7.14 8.61621 6.5 8.61621C5.8 8.61621 4.862 8.84621 4.063 9.09321C3.70526 9.20471 3.35078 9.32642 3 9.45821V15.6162C3 15.7488 2.94732 15.876 2.85355 15.9698C2.75979 16.0635 2.63261 16.1162 2.5 16.1162C2.36739 16.1162 2.24021 16.0635 2.14645 15.9698C2.05268 15.876 2 15.7488 2 15.6162V0.616211C2 0.483603 2.05268 0.356426 2.14645 0.262658C2.24021 0.168889 2.36739 0.116211 2.5 0.116211C2.63261 0.116211 2.75979 0.168889 2.85355 0.262658C2.94732 0.356426 3 0.483603 3 0.616211V0.898211C3.226 0.819211 3.496 0.728211 3.79 0.638211C4.606 0.388211 5.67 0.116211 6.5 0.116211C7.34 0.116211 8.024 0.393211 8.621 0.635211L8.664 0.653211C9.286 0.904211 9.828 1.11621 10.5 1.11621C11.2 1.11621 12.138 0.886211 12.937 0.639211C13.3923 0.497023 13.8423 0.338251 14.286 0.163211L14.305 0.156211L14.309 0.154211H14.31M14 1.33721C13.78 1.41521 13.52 1.50421 13.234 1.59221C12.424 1.84421 11.362 2.11521 10.5 2.11521C9.614 2.11521 8.908 1.82921 8.297 1.58121L8.289 1.57821C7.662 1.32621 7.139 1.11621 6.5 1.11621C5.831 1.11621 4.894 1.34521 4.085 1.59421C3.72011 1.70679 3.35831 1.82917 3 1.96121V8.39421C3.22 8.31621 3.48 8.22721 3.766 8.13921C4.576 7.88621 5.638 7.61621 6.5 7.61621C7.347 7.61621 8.048 7.89621 8.658 8.14121L8.686 8.15121C9.32 8.40621 9.86 8.61621 10.5 8.61621C11.168 8.61621 12.106 8.38721 12.915 8.13821C13.2799 8.02562 13.6417 7.90324 14 7.77121V1.33821V1.33721Z" fill="#A0AEC0"/>
</g>
</svg>
