<svg width="20" height="21" viewBox="0 0 20 21" fill="none" xmlns="http://www.w3.org/2000/svg">
<g id="check2-all" clip-path="url(#clip0_17_424)">
<path id="Vector" fill-rule="evenodd" clip-rule="evenodd" d="M15.4421 5.0574C15.5003 5.11545 15.5465 5.18442 15.578 5.26035C15.6095 5.33629 15.6257 5.41769 15.6257 5.4999C15.6257 5.58211 15.6095 5.66351 15.578 5.73944C15.5465 5.81537 15.5003 5.88434 15.4421 5.9424L6.6921 14.6924C6.63404 14.7506 6.56507 14.7968 6.48914 14.8283C6.41321 14.8598 6.33181 14.876 6.2496 14.876C6.16739 14.876 6.08599 14.8598 6.01006 14.8283C5.93413 14.7968 5.86516 14.7506 5.8071 14.6924L1.4321 10.3174C1.31474 10.2 1.24881 10.0409 1.24881 9.8749C1.24881 9.70893 1.31474 9.54975 1.4321 9.4324C1.54946 9.31504 1.70863 9.24911 1.8746 9.24911C2.04057 9.24911 2.19974 9.31504 2.3171 9.4324L6.2496 13.3661L14.5571 5.0574C14.6152 4.99919 14.6841 4.95301 14.7601 4.92151C14.836 4.89 14.9174 4.87378 14.9996 4.87378C15.0818 4.87378 15.1632 4.89 15.2391 4.92151C15.3151 4.95301 15.384 4.99919 15.4421 5.0574Z" fill="#4FD1C5"/>
<path id="Vector_2" d="M7.8121 10.5536L6.6921 9.43237C6.57474 9.31502 6.41557 9.24908 6.2496 9.24908C6.08363 9.24908 5.92446 9.31502 5.8071 9.43237C5.68974 9.54973 5.62381 9.7089 5.62381 9.87487C5.62381 10.0408 5.68974 10.2 5.8071 10.3174L6.92835 11.4374L7.8121 10.5536ZM9.0621 13.5711L10.1821 14.6924C10.2402 14.7506 10.3091 14.7968 10.3851 14.8283C10.461 14.8598 10.5424 14.876 10.6246 14.876C10.7068 14.876 10.7882 14.8598 10.8641 14.8283C10.9401 14.7968 11.009 14.7506 11.0671 14.6924L19.8171 5.94237C19.9345 5.82502 20.0004 5.66584 20.0004 5.49987C20.0004 5.3339 19.9345 5.17473 19.8171 5.05737C19.6997 4.94002 19.5406 4.87408 19.3746 4.87408C19.2086 4.87408 19.0495 4.94002 18.9321 5.05737L10.6246 13.3661L9.94585 12.6874L9.0621 13.5711Z" fill="#4FD1C5"/>
</g>
<defs>
<clipPath id="clip0_17_424">
<rect width="20" height="20" fill="white" transform="translate(0 0.5)"/>
</clipPath>
</defs>
</svg>
