<svg width="16" height="17" viewBox="0 0 16 17" fill="none" xmlns="http://www.w3.org/2000/svg">
<g id="MdMoveToInbox">
<path id="Vector" d="M12.6667 2.17227H3.32667C2.58667 2.17227 2.00667 2.77227 2.00667 3.50561L2 12.8389C2 13.5723 2.58667 14.1723 3.32667 14.1723H12.6667C13.4 14.1723 14 13.5723 14 12.8389V3.50561C14 2.77227 13.4 2.17227 12.6667 2.17227ZM12.6667 10.1723H10C10 11.2789 9.1 12.1723 8 12.1723C6.9 12.1723 6 11.2789 6 10.1723H3.32667V3.50561H12.6667V10.1723ZM10.6667 6.83894H9.33333V4.83894H6.66667V6.83894H5.33333L8 9.50561L10.6667 6.83894Z" fill="black"/>
</g>
</svg>
