<svg width="15" height="16" viewBox="0 0 15 16" fill="none" xmlns="http://www.w3.org/2000/svg">
<g id="IONIcon/H/home/default" clip-path="url(#clip0_1_113)">
<path id="Vector" d="M7.66271 3.4676C7.61909 3.42588 7.56105 3.40259 7.50069 3.40259C7.44033 3.40259 7.3823 3.42588 7.33868 3.4676L1.94513 8.62004C1.92222 8.64195 1.904 8.66828 1.89156 8.69744C1.87912 8.72659 1.87273 8.75797 1.87277 8.78967L1.87189 13.6254C1.87189 13.874 1.97066 14.1125 2.14647 14.2883C2.32229 14.4641 2.56075 14.5629 2.80939 14.5629H5.62482C5.74914 14.5629 5.86836 14.5135 5.95627 14.4256C6.04418 14.3377 6.09357 14.2185 6.09357 14.0942V10.1098C6.09357 10.0476 6.11826 9.98801 6.16221 9.94406C6.20617 9.9001 6.26578 9.87541 6.32794 9.87541H8.67169C8.73385 9.87541 8.79346 9.9001 8.83742 9.94406C8.88137 9.98801 8.90606 10.0476 8.90606 10.1098V14.0942C8.90606 14.2185 8.95545 14.3377 9.04336 14.4256C9.13127 14.5135 9.25049 14.5629 9.37481 14.5629H12.1891C12.4377 14.5629 12.6762 14.4641 12.852 14.2883C13.0278 14.1125 13.1266 13.874 13.1266 13.6254V8.78967C13.1266 8.75797 13.1202 8.72659 13.1078 8.69744C13.0953 8.66828 13.0771 8.64195 13.0542 8.62004L7.66271 3.4676Z" fill="white"/>
<path id="Vector_2" d="M14.3823 7.65381L12.1909 5.55732V2.37598C12.1909 2.25166 12.1415 2.13243 12.0536 2.04452C11.9656 1.95661 11.8464 1.90723 11.7221 1.90723H10.3159C10.1915 1.90723 10.0723 1.95661 9.9844 2.04452C9.89649 2.13243 9.8471 2.25166 9.8471 2.37598V3.31348L8.15023 1.69102C7.99144 1.53047 7.75531 1.43848 7.50013 1.43848C7.24583 1.43848 7.01029 1.53047 6.8515 1.69131L0.620055 7.65322C0.437829 7.829 0.414977 8.11816 0.580797 8.30859C0.622437 8.35666 0.673422 8.39575 0.73065 8.42349C0.787878 8.45122 0.850151 8.46703 0.91368 8.46993C0.977209 8.47284 1.04066 8.46278 1.10018 8.44039C1.15971 8.41799 1.21405 8.38371 1.2599 8.33965L7.339 2.53066C7.38262 2.48894 7.44065 2.46565 7.50101 2.46565C7.56137 2.46565 7.6194 2.48894 7.66302 2.53066L13.7427 8.33965C13.8323 8.42553 13.9522 8.4724 14.0763 8.46999C14.2003 8.46757 14.3184 8.41606 14.4045 8.32676C14.5844 8.14043 14.5695 7.83281 14.3823 7.65381Z" fill="white"/>
</g>
<defs>
<clipPath id="clip0_1_113">
<rect width="15" height="15" fill="white" transform="translate(-0.000183105 0.500092)"/>
</clipPath>
</defs>
</svg>
